<?xml version="1.0" encoding="iso-8859-1"?>
<!-- Generator: Adobe Illustrator 19.0.0, SVG Export Plug-In . SVG Version: 6.00 Build 0)  -->
<svg version="1.1" id="Layer_1" xmlns="http://www.w3.org/2000/svg" xmlns:xlink="http://www.w3.org/1999/xlink" x="0px" y="0px"
	 viewBox="0 0 512 512" style="enable-background:new 0 0 512 512;" xml:space="preserve">
<g>
	<g>
		<path d="M479.216,112.164c0.484-1.304,0.792-1.696,0.792-3.164c0-6.616-5.384-11-12-11h-28c-6.616,0-12,5.384-12,12
			c0,1.412,0.288,0,0.74,4h-57.192L354,77.844C347.616,64.696,330.536,54,315.92,54H196.092c-14.616,0-31.7,10.696-38.084,23.844
			L140.46,114H124V96c0-2.212-1.78-2-3.992-2h-80C37.796,94,36,93.788,36,96v16c-20,0-36,16.148-36,36v272
			c0,19.852,16.156,38,36.008,38h440C495.86,458,512,439.852,512,420V148C512,129.236,497.568,113.796,479.216,112.164z M192,90
			c0-2.212,1.788-4,4-4h120c2.212,0,4,1.788,4,4v16c0,2.212-1.788,4-4,4H196c-2.212,0-4-1.788-4-4V90z M56.008,192
			c-13.236,0-24-10.764-24-24c0-13.236,10.764-24,24-24s24,10.764,24,24C80.008,181.236,69.244,192,56.008,192z M88.008,212
			c-6.616,0-12-5.384-12-12c0-6.616,5.384-12,12-12c6.616,0,12,5.384,12,12C100.008,206.616,94.624,212,88.008,212z M256.008,424
			c-77.196,0-140-62.804-140-140s62.804-140,140-140s140,62.804,140,140S333.204,424,256.008,424z"/>
	</g>
</g>
<g>
	<g>
		<path d="M256.008,172c-61.756,0-112,50.244-112,112s50.244,112,112,112s112-50.244,112-112S317.764,172,256.008,172z M256.008,344
			c-33.084,0-60-26.916-60-60s26.916-60,60-60s60,26.916,60,60S289.092,344,256.008,344z"/>
	</g>
</g>
<g>
</g>
<g>
</g>
<g>
</g>
<g>
</g>
<g>
</g>
<g>
</g>
<g>
</g>
<g>
</g>
<g>
</g>
<g>
</g>
<g>
</g>
<g>
</g>
<g>
</g>
<g>
</g>
<g>
</g>
</svg>
