<svg id="Grupo_189" data-name="Grupo 189" xmlns="http://www.w3.org/2000/svg" width="78" height="78" viewBox="0 0 78 78">
  <g id="instagram">
    <g id="Grupo_184" data-name="Grupo 184">
      <g id="Grupo_183" data-name="Grupo 183">
        <path id="Caminho_83" data-name="Caminho 83" d="M53.625,0H24.375A24.378,24.378,0,0,0,0,24.375v29.25A24.378,24.378,0,0,0,24.375,78h29.25A24.378,24.378,0,0,0,78,53.625V24.375A24.378,24.378,0,0,0,53.625,0ZM70.688,53.625A17.081,17.081,0,0,1,53.625,70.688H24.375A17.081,17.081,0,0,1,7.313,53.625V24.375A17.081,17.081,0,0,1,24.375,7.313h29.25A17.081,17.081,0,0,1,70.688,24.375Z" fill="#fff"/>
      </g>
    </g>
    <g id="Grupo_186" data-name="Grupo 186" transform="translate(19.5 19.5)">
      <g id="Grupo_185" data-name="Grupo 185">
        <path id="Caminho_84" data-name="Caminho 84" d="M39,19.5A19.5,19.5,0,1,0,58.5,39,19.5,19.5,0,0,0,39,19.5Zm0,31.688A12.188,12.188,0,1,1,51.188,39,12.2,12.2,0,0,1,39,51.188Z" transform="translate(-19.5 -19.5)" fill="#fff"/>
      </g>
    </g>
    <g id="Grupo_188" data-name="Grupo 188" transform="translate(57.364 15.439)">
      <g id="Grupo_187" data-name="Grupo 187">
        <circle id="Elipse_6" data-name="Elipse 6" cx="2.598" cy="2.598" r="2.598" fill="#fff"/>
      </g>
    </g>
  </g>
</svg>
