<svg xmlns="http://www.w3.org/2000/svg" xmlns:xlink="http://www.w3.org/1999/xlink" width="78" height="78" viewBox="0 0 78 78">
  <defs>
    <clipPath id="clip-path">
      <path id="Caminho_85" data-name="Caminho 85" d="M39,0a39,39,0,0,1,0,78c-10.209,0-22.175-1.72-29.333-8.333C2.159,62.734,0,50.33,0,39A39,39,0,0,1,39,0Z" fill="#fff" stroke="#707070" stroke-width="1"/>
    </clipPath>
  </defs>
  <g id="Grupo_de_máscara_2" data-name="Grupo de máscara 2" clip-path="url(#clip-path)">
    <g id="whatsapp" transform="translate(8.71 8.394)">
      <g id="Grupo_182" data-name="Grupo 182">
        <path id="Caminho_81" data-name="Caminho 81" d="M60.419,60.1a30.31,30.31,0,0,1-34.9,5.713L22.8,64.461,10.821,67.3,13.342,55.06,12,52.435a30.317,30.317,0,0,1,5.579-35.169A30.29,30.29,0,1,1,60.419,60.1Z" transform="translate(-8.71 -8.394)" fill="#fff"/>
        <path id="Caminho_82" data-name="Caminho 82" d="M57.774,47.074l-7.493-2.152a2.793,2.793,0,0,0-2.764.728l-1.832,1.867a2.73,2.73,0,0,1-2.968.626c-3.545-1.435-11-8.064-12.905-11.38a2.73,2.73,0,0,1,.216-3.025l1.6-2.07a2.793,2.793,0,0,0,.345-2.837L28.82,21.7a2.794,2.794,0,0,0-4.363-1c-2.091,1.769-4.573,4.457-4.874,7.434C19.05,33.386,21.3,40,29.816,47.951,39.653,57.132,47.53,58.345,52.658,57.1c2.909-.7,5.234-3.529,6.7-5.842A2.794,2.794,0,0,0,57.774,47.074Z" transform="translate(-8.71 -8.394)"/>
      </g>
    </g>
  </g>
</svg>
